<?xml version="1.0" encoding="utf-8"?>
<!-- Generator: Adobe Illustrator 21.1.0, SVG Export Plug-In . SVG Version: 6.00 Build 0)  -->
<svg version="1.1" id="Layer_1" xmlns="http://www.w3.org/2000/svg" xmlns:xlink="http://www.w3.org/1999/xlink" x="0px" y="0px"
	 viewBox="0 0 512 512" style="enable-background:new 0 0 512 512;" xml:space="preserve">
<style type="text/css">
	.st0a{fill:#69CDFF;}
	.st1a{fill:#37C47A;}
	.st2a{fill:#3057B7;}
</style>
<path class="st0a" d="M258,68.7c-106.7,0-193.4,86.8-193.4,193.4S151.4,455.5,258,455.5s193.4-86.8,193.4-193.4S364.7,68.7,258,68.7z
	 M396.2,303.5h-96.8v96.8h-83v-96.8h-96.6v-83h96.8v-96.8h83v96.8h96.8L396.2,303.5L396.2,303.5z"/>
<polygon class="st1a" points="271.8,151.5 244.2,151.5 244.2,248.3 147.6,248.3 147.6,275.9 244.2,275.9 244.2,372.7 271.8,372.7 
	271.8,275.9 368.6,275.9 368.6,248.3 271.8,248.3 "/>
<g>
	<path class="st2a" d="M258,41.1c-121.9,0-221,99.1-221,221s99.1,221,221,221s221-99.1,221-221S380,41.1,258,41.1z M258,455.5
		c-106.7,0-193.4-86.8-193.4-193.4S151.4,68.7,258,68.7s193.4,86.8,193.4,193.4S364.7,455.5,258,455.5z"/>
	<path class="st2a" d="M299.6,123.9h-83v96.8h-96.8v83h96.8v96.8h83v-96.8h96.8v-83h-96.8L299.6,123.9L299.6,123.9z M368.6,248.3
		v27.6h-96.8v96.8h-27.6v-96.8h-96.8v-27.6h96.8v-96.8h27.6v96.8H368.6z"/>
</g>
</svg>
