<?xml version="1.0" encoding="utf-8"?>
<!-- Generator: Adobe Illustrator 21.1.0, SVG Export Plug-In . SVG Version: 6.00 Build 0)  -->
<svg version="1.1" id="Layer_1" xmlns="http://www.w3.org/2000/svg" xmlns:xlink="http://www.w3.org/1999/xlink" x="0px" y="0px"
	 viewBox="0 0 512 512" style="enable-background:new 0 0 512 512;" xml:space="preserve">
<style type="text/css">
	.st0b{fill:#D81212;}
	.st1b{fill:#FFFFFF;}
	.st2b{fill:#3057B7;}
</style>
<g>
	<path class="st0b" d="M256,344.3c13.9,0,25.2,11.3,25.2,25.1c0,13.9-11.3,25.2-25.2,25.2c-13.9,0-25.2-11.3-25.2-25.2
		C230.8,355.5,242.1,344.3,256,344.3L256,344.3z M410,212.7L333.4,80c-7.3-14.7-18.8-27.5-34-36.3c-41.3-23.9-94.1-9.8-118,31.4
		L102,212.6l0.2,0.1L102,213L26.8,343.3c-10.1,14.1-16,31.4-16,50.1c0,47.8,38.8,86.6,86.6,86.6h158.8h158.8v-0.2
		c14.7,0,29.6-3.7,43.3-11.6c41.3-23.9,55.3-76.7,31.4-118l-79.4-137.5L410,212.7L410,212.7z M281.1,168.6v108.8
		c0,13.8-11.3,25.2-25.2,25.2c-13.8,0-25.2-11.3-25.2-25.2V168.6c0-13.8,11.3-25.2,25.2-25.2C269.8,143.4,281.1,154.7,281.1,168.6z"
		/>
	<g>
		<circle class="st1b" cx="256" cy="369.4" r="25.2"/>
		<path class="st1b" d="M256,302.5c13.8,0,25.2-11.3,25.2-25.2V168.6c0-13.8-11.3-25.2-25.2-25.2c-13.8,0-25.2,11.3-25.2,25.2v108.8
			C230.8,291.2,242.1,302.5,256,302.5z"/>
	</g>
</g>
<g>
	<path class="st2b" d="M498.9,344.7l-79.4-137.5c-0.3-0.6-0.7-1.1-1.1-1.6L342.9,74.9c-8.5-17-21.7-31-38.1-40.5
		c-14.8-8.6-31.6-13.1-48.6-13.1c-34.6,0-66.8,18.6-84.1,48.5L92.7,207.2c-0.3,0.6-0.6,1.1-0.8,1.7L17.7,337.4
		C6.1,353.9,0,373.2,0,393.4c0,53.7,43.7,97.3,97.3,97.3h317.5c0.8,0,1.5-0.1,2.2-0.2c16.3-0.4,32.3-4.9,46.4-13.1
		c22.4-13,38.5-34,45.2-59C515.4,393.3,511.9,367.2,498.9,344.7z M487.9,412.9c-5.2,19.5-17.7,35.8-35.1,45.9
		c-11.5,6.7-24.6,10.2-37.9,10.2c-0.7,0-1.4,0.1-2.1,0.2H97.3c-41.8,0-75.8-34-75.8-75.8c0-15.8,4.8-31,14-43.9
		c0.2-0.3,0.4-0.6,0.6-0.9l75.2-130.2l0.1-0.2c0.3-0.6,0.6-1.2,0.9-1.8l78.4-135.8c13.5-23.3,38.6-37.7,65.5-37.7
		c13.2,0,26.3,3.5,37.8,10.2c12.9,7.5,23.2,18.4,29.8,31.7c0.1,0.2,0.2,0.4,0.3,0.6l76.6,132.7c0.3,0.6,0.7,1.1,1.1,1.6l78.4,135.9
		C490.4,373,493.1,393.3,487.9,412.9z"/>
	<path class="st2b" d="M167,186.9c-5.1-3-11.7-1.2-14.7,3.9L83.6,308.9c-3,5.1-1.2,11.7,3.9,14.7c1.7,1,3.6,1.5,5.4,1.5
		c3.7,0,7.3-1.9,9.3-5.4l68.7-118.1C173.9,196.5,172.2,189.9,167,186.9z"/>
	<path class="st2b" d="M83.4,330.7c-5.1-3-11.7-1.2-14.7,3.9l-0.3,0.4c-3,5.1-1.2,11.7,3.9,14.7c1.7,1,3.6,1.5,5.4,1.5
		c3.7,0,7.3-1.9,9.3-5.4l0.3-0.4C90.3,340.2,88.6,333.6,83.4,330.7z"/>
	<path class="st2b" d="M407.8,426.3c-51.4-0.1-62.7,0-78.4,0l-2.7,0c-5.9,0-10.8,4.8-10.7,10.8c0,5.9,4.8,10.7,10.8,10.7c0,0,0,0,0,0
		l2.7,0c15.7,0,27-0.1,78.4,0c0,0,0,0,0,0c5.9,0,10.8-4.8,10.8-10.8C418.6,431.1,413.7,426.3,407.8,426.3z"/>
	<path class="st2b" d="M431.3,421.9l-0.2,0.1c-5.2,2.9-7.1,9.4-4.2,14.6c2,3.6,5.6,5.6,9.4,5.6c1.8,0,3.5-0.4,5.2-1.3
		c0.2-0.1,0.5-0.3,0.7-0.4c5.1-3,6.9-9.6,3.8-14.7C443,420.6,436.4,418.9,431.3,421.9z"/>
	<path class="st2b" d="M256,313.2c19.8,0,35.9-16.1,35.9-35.9V168.6c0-19.8-16.1-35.9-35.9-35.9S220,148.8,220,168.6v108.8
		C220,297.1,236.2,313.2,256,313.2z M241.6,168.6c0-7.9,6.5-14.4,14.4-14.4c7.9,0,14.4,6.5,14.4,14.4v108.8
		c0,7.9-6.5,14.4-14.4,14.4h0c-7.9,0-14.4-6.5-14.4-14.4L241.6,168.6L241.6,168.6z"/>
	<path class="st2b" d="M256,333.5c-19.8,0-35.9,16.1-35.9,35.9c0,19.8,16.1,35.9,35.9,35.9c19.8,0,35.9-16.1,35.9-35.9
		C291.9,349.6,275.8,333.5,256,333.5z M256,383.8c-7.9,0-14.4-6.5-14.4-14.4c0-7.9,6.5-14.4,14.4-14.4s14.4,6.5,14.4,14.4
		C270.3,377.4,263.9,383.8,256,383.8z"/>
</g>
</svg>
