<?xml version="1.0" encoding="utf-8"?>
<!-- Generator: Adobe Illustrator 21.1.0, SVG Export Plug-In . SVG Version: 6.00 Build 0)  -->
<svg version="1.1" id="Capa_1" xmlns="http://www.w3.org/2000/svg" xmlns:xlink="http://www.w3.org/1999/xlink" x="0px" y="0px"
	 viewBox="0 0 512 512" style="enable-background:new 0 0 512 512;" xml:space="preserve">
<style type="text/css">
	.st001{fill:#60CE4D;}
	.st002{fill:#FFFFFF;}
	.st003{fill:#3057B7;}
</style>
<path class="st001" d="M256,10c132.5,0,246,113.4,246,246S388.5,502,256,502S10,388.5,10,256S123.4,10,256,10z"/>
<path class="st002" d="M367.2,184.8c11.7,11.7,11.7,30.7,0,42.4l-120,120c-5.9,5.9-13.5,8.8-21.2,8.8s-15.4-2.9-21.2-8.8l-60-60
	c-11.7-11.7-11.7-30.7,0-42.4c11.7-11.7,30.7-11.7,42.4,0l38.8,38.8l98.8-98.8C336.5,173.1,355.5,173.1,367.2,184.8z"/>
<path class="st003" d="M491.4,157.7c-13.1-30.3-31.9-57.7-55.6-81.4s-51.1-42.4-81.4-55.6C322.8,6.9,289.7,0,256,0
	s-66.8,6.9-98.3,20.6C127.4,33.8,100,52.5,76.2,76.2s-42.4,51.1-55.6,81.4C6.9,189.2,0,222.3,0,256s6.9,66.8,20.6,98.3
	c13.2,30.3,31.9,57.7,55.6,81.4s51.1,42.4,81.4,55.6c31.5,13.7,64.6,20.6,98.3,20.6s66.8-6.9,98.3-20.6
	c30.3-13.1,57.7-31.9,81.4-55.6s42.4-51.1,55.6-81.4c13.7-31.5,20.6-64.6,20.6-98.3S505.1,189.2,491.4,157.7z M256,492
	C128.1,492,20,383.9,20,256S128.1,20,256,20s236,108.1,236,236S383.9,492,256,492z"/>
<path class="st003" d="M452,173.8c-10.9-25.3-26.4-48-46-67.7c-19.7-19.7-42.5-35.2-67.7-46c-26.2-11.3-53.9-17-82.2-17
	c-38.5,0-78.6,13.1-115.9,38c-4.6,3.1-5.9,9.3-2.8,13.9c3.1,4.6,9.3,5.8,13.9,2.8C185.2,75,221.5,63,256,63
	c104.6,0,193,88.4,193,193s-88.4,193-193,193S63,360.6,63,256c0-34.5,12-70.8,34.6-104.9c3.1-4.6,1.8-10.8-2.8-13.9
	c-4.6-3.1-10.8-1.8-13.9,2.8C56.1,177.5,43,217.5,43,256c0,28.3,5.7,55.9,17,82.2c10.9,25.3,26.4,48,46,67.7
	c19.7,19.7,42.5,35.2,67.7,46c26.2,11.3,53.9,17,82.2,17s55.9-5.7,82.2-17c25.3-10.9,48-26.4,67.7-46c19.7-19.7,35.2-42.5,46-67.7
	c11.3-26.2,17-53.9,17-82.2S463.3,200.1,452,173.8z"/>
<path class="st003" d="M137.7,294.3l60,60c7.6,7.6,17.6,11.7,28.3,11.7s20.7-4.2,28.3-11.7l120-120c7.6-7.6,11.7-17.6,11.7-28.3
	s-4.2-20.7-11.7-28.3c-7.6-7.6-17.6-11.7-28.3-11.7s-20.7,4.2-28.3,11.7L226,269.4l-31.7-31.7c-7.6-7.6-17.6-11.7-28.3-11.7
	s-20.7,4.2-28.3,11.7c-7.6,7.6-11.7,17.6-11.7,28.3C126,276.7,130.2,286.7,137.7,294.3z M151.9,251.9c3.8-3.8,8.8-5.9,14.1-5.9
	s10.4,2.1,14.1,5.9l45.9,45.9l105.9-105.9c3.8-3.8,8.8-5.9,14.1-5.9s10.4,2.1,14.1,5.9c3.8,3.8,5.9,8.8,5.9,14.1s-2.1,10.4-5.9,14.1
	l-120,120c-3.8,3.8-8.8,5.9-14.1,5.9s-10.4-2.1-14.1-5.9l-60-60c-3.8-3.8-5.9-8.8-5.9-14.1S148.1,255.6,151.9,251.9z"/>
<path class="st003" d="M115,105c-5.5,0-10,4.5-10,10s4.5,10,10,10s10-4.5,10-10S120.5,105,115,105z"/>
</svg>
