<?xml version="1.0" encoding="iso-8859-1"?>
<!-- Generator: Adobe Illustrator 18.0.0, SVG Export Plug-In . SVG Version: 6.00 Build 0)  -->
<!DOCTYPE svg PUBLIC "-//W3C//DTD SVG 1.1//EN" "http://www.w3.org/Graphics/SVG/1.1/DTD/svg11.dtd">
<svg version="1.1" id="Capa_1" xmlns="http://www.w3.org/2000/svg" xmlns:xlink="http://www.w3.org/1999/xlink" x="0px" y="0px"
	 viewBox="0 0 60 60" style="enable-background:new 0 0 60 60;" xml:space="preserve">
<g>
	<g>
		<g>
			<path style="fill:#91BAE1;" d="M50.003,22c-0.115-8.699-7.193-16-15.919-16c-5.559,0-10.779,3.005-13.661,7.336
				C19.157,12.493,17.636,12,16,12c-4.418,0-8,3.582-8,8c0,0.153,0.014,0.302,0.023,0.454C8.013,20.636,8,20.82,8,21
				c-3.988,1.912-7,6.457-7,11.155C1,38.67,6.33,44,12.845,44h24.507c0.138,0,0.272-0.016,0.408-0.021
				C37.897,43.984,38.031,44,38.169,44h9.803C54.037,44,59,39.037,59,32.972C59,27.601,55.106,22.961,50.003,22z"/>
			<path style="fill:#8697CB;" d="M47.972,45h-9.803c-0.104,0-0.208-0.006-0.311-0.014l-0.133-0.008l-0.063,0.008
				C37.56,44.994,37.457,45,37.352,45H12.845C5.762,45,0,39.237,0,32.154c0-4.755,2.857-9.506,7.016-11.773
				C7.008,20.255,7,20.129,7,20c0-4.963,4.038-9,9-9c1.451,0,2.864,0.346,4.138,1.008C23.396,7.663,28.655,5,34.084,5
				c8.944,0,16.363,7.194,16.891,16.194C56.173,22.56,60,27.483,60,32.972C60,39.604,54.604,45,47.972,45z M37.725,42.98l0.27,0.011
				C38.052,42.995,38.11,43,38.169,43h9.803C53.501,43,58,38.501,58,32.972c0-4.816-3.518-9.11-8.182-9.989l-0.804-0.151
				l-0.011-0.817C48.895,13.735,42.202,7,34.084,7c-5.007,0-10.042,2.704-12.828,6.89l-0.554,0.833l-0.833-0.554
				C18.721,13.404,17.382,13,16,13c-3.86,0-7,3.141-7,7c0,0.084,0.006,0.167,0.012,0.25l0.012,0.202l-0.009,0.173
				C9.008,20.751,9,20.877,9,21v0.63l-0.568,0.271C4.705,23.688,2,28,2,32.154C2,38.135,6.865,43,12.845,43h24.507
				c0.059,0,0.116-0.005,0.174-0.009L37.725,42.98z"/>
		</g>
		<g>
			<path style="fill:#91BAE1;" d="M50.003,22c0,0-2.535-0.375-5.003,0"/>
			<path style="fill:#8697CB;" d="M44.999,23c-0.486,0-0.912-0.354-0.987-0.85c-0.083-0.546,0.292-1.056,0.838-1.139
				c2.589-0.394,5.189-0.018,5.3-0.001c0.546,0.081,0.923,0.589,0.843,1.135c-0.08,0.547-0.597,0.924-1.135,0.844
				c-0.025-0.003-2.424-0.345-4.707-0.001C45.099,22.996,45.049,23,44.999,23z"/>
		</g>
		<g>
			<path style="fill:#91BAE1;" d="M8,20c0-4.418,3.582-8,8-8s8,3.582,8,8"/>
			<path style="fill:#8697CB;" d="M24,21c-0.552,0-1-0.447-1-1c0-3.859-3.14-7-7-7s-7,3.141-7,7c0,0.553-0.448,1-1,1s-1-0.447-1-1
				c0-4.963,4.038-9,9-9s9,4.037,9,9C25,20.553,24.552,21,24,21z"/>
		</g>
	</g>
	<g>
		<rect x="20" y="33" style="fill:#21AE5E;" width="22" height="22"/>
		<rect x="30" y="34.586" style="fill:#FFFFFF;" width="2" height="16"/>
		<polygon style="fill:#FFFFFF;" points="31,52 24,45.293 25.476,43.879 31,49.172 36.524,43.879 38,45.293 		"/>
	</g>
</g>
<g>
</g>
<g>
</g>
<g>
</g>
<g>
</g>
<g>
</g>
<g>
</g>
<g>
</g>
<g>
</g>
<g>
</g>
<g>
</g>
<g>
</g>
<g>
</g>
<g>
</g>
<g>
</g>
<g>
</g>
</svg>
