<?xml version="1.0" encoding="utf-8"?>
<!-- Generator: Adobe Illustrator 21.1.0, SVG Export Plug-In . SVG Version: 6.00 Build 0)  -->
<svg version="1.1" id="Livello_1" xmlns="http://www.w3.org/2000/svg" xmlns:xlink="http://www.w3.org/1999/xlink" x="0px" y="0px"
	 viewBox="0 0 512 512" style="enable-background:new 0 0 512 512;" xml:space="preserve">
<style type="text/css">
	.st0e{fill:#D6EFFB;}
	.st1e{fill:#86A4B3;}
	.st2e{fill:#00B7EC;}
	.st3e{fill:#3057B7;}
</style>
<g>
	<path class="st0e" d="M62.6,99.9c0.1-0.2,0.3-0.4,0.4-0.6C62.9,99.5,62.7,99.7,62.6,99.9z"/>
	<path class="st0e" d="M60.6,102.7c0.2-0.3,0.4-0.6,0.6-0.9C61,102.1,60.8,102.4,60.6,102.7z"/>
	<path class="st0e" d="M139.8,15.3c0.4-0.2,0.7-0.4,1.1-0.6C140.5,14.9,140.1,15.1,139.8,15.3z"/>
	<path class="st0e" d="M141.2,14.5c0.4-0.2,0.8-0.4,1.2-0.7C142,14,141.6,14.3,141.2,14.5z"/>
	<path class="st0e" d="M61.5,101.3c0.2-0.3,0.4-0.5,0.5-0.8C61.9,100.8,61.7,101.1,61.5,101.3z"/>
	<path class="st0e" d="M135.6,18.3c0.2-0.2,0.5-0.4,0.8-0.6C136.1,17.9,135.8,18.1,135.6,18.3z"/>
	<path class="st0e" d="M136.9,17.2c0.3-0.2,0.6-0.4,0.9-0.6C137.5,16.8,137.2,17,136.9,17.2z"/>
	<path class="st0e" d="M133,20.7c0.2-0.2,0.3-0.3,0.5-0.5C133.3,20.4,133.1,20.5,133,20.7z"/>
	<path class="st0e" d="M134.3,19.5c0.2-0.2,0.4-0.4,0.6-0.6C134.7,19.1,134.5,19.3,134.3,19.5z"/>
	<path class="st0e" d="M138.4,16.2c0.3-0.2,0.6-0.4,1-0.6C139,15.8,138.7,16,138.4,16.2z"/>
	<path class="st0e" d="M374.5,335.8c4.7,0,9.3,0.4,13.7,1.1V50.3c0-22.2-18-40.3-40.3-40.3H158.5c-5.6,0-11.1,1.3-16.1,3.8v78.5
		c0,8.8-7.2,16-16,16H57.7c-1.8,4.3-2.7,8.9-2.7,13.6v310.8C55,455,73,473,95.3,473h216.2c-12.5-14.5-20.1-33.4-20.1-54.1
		C291.4,373,328.6,335.8,374.5,335.8z"/>
	<path class="st0e" d="M59,105.5c0.2-0.4,0.4-0.8,0.6-1.2C59.4,104.7,59.2,105.1,59,105.5z"/>
	<path class="st0e" d="M58.3,106.9c0.2-0.4,0.4-0.8,0.6-1.3C58.7,106.1,58.5,106.5,58.3,106.9z"/>
	<path class="st0e" d="M59.8,104.1c0.2-0.4,0.4-0.7,0.6-1C60.2,103.4,60,103.8,59.8,104.1z"/>
	<path class="st0e" d="M131.7,22L131.7,22L64.1,98.1h0L131.7,22L131.7,22z"/>
	<path class="st0e" d="M57.7,108.3c0.2-0.4,0.4-0.9,0.6-1.3C58.1,107.4,57.9,107.9,57.7,108.3z"/>
</g>
<path class="st1e" d="M142.4,92.3V13.8c0,0,0,0,0,0c-0.4,0.2-0.8,0.4-1.2,0.7c-0.1,0.1-0.2,0.1-0.3,0.2c-0.4,0.2-0.7,0.4-1.1,0.6
	c-0.2,0.1-0.3,0.2-0.5,0.3c-0.3,0.2-0.6,0.4-1,0.6c-0.2,0.1-0.4,0.3-0.5,0.4c-0.3,0.2-0.6,0.4-0.9,0.6c-0.2,0.2-0.4,0.3-0.6,0.5
	c-0.3,0.2-0.5,0.4-0.8,0.6c-0.2,0.2-0.5,0.4-0.7,0.6c-0.2,0.2-0.4,0.4-0.6,0.6c-0.3,0.2-0.5,0.5-0.8,0.8c-0.2,0.2-0.3,0.3-0.5,0.5
	c-0.4,0.4-0.8,0.9-1.2,1.3c0,0,0,0,0,0L64,98.1c-0.3,0.4-0.7,0.8-1,1.2c-0.1,0.2-0.3,0.4-0.4,0.6c-0.2,0.2-0.3,0.4-0.5,0.7
	c-0.2,0.3-0.4,0.5-0.5,0.8c-0.1,0.2-0.2,0.3-0.3,0.5c-0.2,0.3-0.4,0.6-0.6,0.9c-0.1,0.1-0.2,0.2-0.2,0.4c-0.2,0.3-0.4,0.7-0.6,1
	c0,0.1-0.1,0.2-0.1,0.2c-0.2,0.4-0.4,0.8-0.6,1.2c0,0.1-0.1,0.1-0.1,0.1c-0.2,0.4-0.4,0.8-0.6,1.3c0,0,0,0,0,0.1
	c-0.2,0.4-0.4,0.9-0.6,1.3v0h68.7C135.2,108.3,142.4,101.2,142.4,92.3z"/>
<path class="st2e" d="M388.2,337c-4.5-0.7-9-1.1-13.7-1.1c-45.9,0-83.1,37.2-83.1,83.1c0,20.7,7.6,39.6,20.1,54.1
	c15.2,17.7,37.8,29,63,29c45.9,0,83.1-37.2,83.1-83.1C457.6,377.7,427.6,343.5,388.2,337z"/>
<path class="st3e" d="M445.3,358.4c-12.4-14.5-28.8-24.7-47-29.5V50.3c0-27.7-22.6-50.3-50.3-50.3H158.5c-7.2,0-14.2,1.7-20.5,4.8
	c0,0-0.1,0-0.1,0s-0.1,0-0.1,0.1c-0.4,0.2-0.8,0.4-1.2,0.6c-0.3,0.2-0.6,0.3-0.9,0.5c-0.3,0.2-0.7,0.4-1,0.6c-0.3,0.2-0.7,0.4-1,0.6
	c-0.3,0.2-0.6,0.4-0.9,0.6c-0.4,0.2-0.7,0.5-1.1,0.7c-0.3,0.2-0.5,0.4-0.8,0.6c-0.4,0.3-0.7,0.6-1.1,0.8c-0.2,0.2-0.5,0.4-0.7,0.6
	c-0.4,0.3-0.7,0.6-1.1,0.9c-0.2,0.2-0.4,0.4-0.7,0.6c-0.4,0.3-0.7,0.7-1.1,1c-0.2,0.2-0.4,0.4-0.6,0.6c-0.4,0.4-0.8,0.9-1.2,1.3
	c-0.1,0.1-0.2,0.2-0.3,0.4L94.2,49.2L56.6,91.5c-0.5,0.5-0.9,1-1.3,1.6c-0.1,0.2-0.3,0.3-0.4,0.5c-0.3,0.4-0.6,0.7-0.8,1.1
	c-0.2,0.3-0.4,0.6-0.6,0.9c-0.2,0.2-0.3,0.5-0.5,0.7c-0.3,0.4-0.5,0.8-0.7,1.1c-0.1,0.2-0.2,0.3-0.3,0.5c-0.3,0.5-0.5,0.9-0.8,1.4
	c0,0.1-0.1,0.2-0.1,0.2c-0.3,0.5-0.6,1.1-0.9,1.6c0,0,0,0,0,0c-3.3,6.4-5.1,13.6-5.1,20.9v310.8c0,27.7,22.6,50.3,50.3,50.3H307
	c17.5,18.5,41.9,29,67.5,29c51.3,0,93.1-41.8,93.1-93.1C467.6,396.7,459.6,375.3,445.3,358.4z M132.4,36.3v56c0,3.3-2.7,6-6,6H77.3
	l30.1-33.9L132.4,36.3z M95.3,463C78.6,463,65,449.5,65,432.8V121.9c0-1.2,0.1-2.4,0.3-3.6h61.1c14.3,0,26-11.7,26-26V20.7
	c2-0.5,4-0.7,6.1-0.7h189.4c16.7,0,30.3,13.6,30.3,30.3v275.6c-1.2,0-2.5-0.1-3.7-0.1c-51.3,0-93.1,41.8-93.1,93.1
	c0,1.2,0,2.5,0.1,3.7c0,0.3,0,0.7,0,1c0.1,1,0.1,2.1,0.2,3.1c0,0.2,0,0.4,0.1,0.6c0.1,1.2,0.2,2.4,0.4,3.6c0,0.3,0.1,0.6,0.1,0.9
	c0.1,1,0.3,1.9,0.5,2.9c0.1,0.3,0.1,0.6,0.1,0.9c0.2,1.2,0.5,2.4,0.7,3.5c0.1,0.3,0.1,0.5,0.2,0.8c0.2,1,0.5,1.9,0.7,2.9
	c0.1,0.3,0.2,0.7,0.3,1c0.3,1.2,0.7,2.3,1,3.5c0,0.1,0.1,0.3,0.1,0.4c0.3,1,0.7,2.1,1.1,3.1c0.1,0.3,0.2,0.7,0.4,1
	c0.4,1,0.8,1.9,1.1,2.9c0.1,0.2,0.1,0.3,0.2,0.5c0.5,1.1,1,2.2,1.5,3.3c0.1,0.3,0.3,0.6,0.5,0.9c0.4,0.9,0.8,1.7,1.3,2.6
	c0.1,0.3,0.3,0.5,0.4,0.8c0.1,0.1,0.1,0.2,0.2,0.3H95.3z M374.5,492c-21.3,0-41.5-9.3-55.4-25.5c-11.4-13.2-17.6-30.1-17.6-47.6
	c0-40.3,32.8-73.1,73.1-73.1c4.1,0,8.1,0.3,12.1,1c35.3,5.9,61,36.2,61,72.1C447.6,459.2,414.8,492,374.5,492z"/>
<path class="st3e" d="M145.8,173.2h158.5c5.5,0,10-4.5,10-10s-4.5-10-10-10H145.8c-5.5,0-10,4.5-10,10S140.3,173.2,145.8,173.2z"/>
<path class="st3e" d="M312.7,231.2c-0.4-0.5-0.8-1.1-1.2-1.5c-0.5-0.5-1-0.9-1.5-1.2c-0.6-0.4-1.1-0.7-1.7-0.9s-1.2-0.4-1.9-0.6
	c-1.3-0.3-2.6-0.3-3.9,0c-0.6,0.1-1.3,0.3-1.9,0.6c-0.6,0.3-1.2,0.6-1.7,0.9c-0.5,0.4-1.1,0.8-1.5,1.2c-0.5,0.5-0.9,1-1.2,1.5
	c-0.4,0.6-0.7,1.1-0.9,1.7s-0.4,1.2-0.6,1.9c-0.1,0.6-0.2,1.3-0.2,1.9c0,0.7,0.1,1.3,0.2,2c0.1,0.6,0.3,1.3,0.6,1.9
	c0.3,0.6,0.6,1.2,0.9,1.7c0.4,0.5,0.8,1.1,1.2,1.5c1.9,1.9,4.4,2.9,7.1,2.9c0.7,0,1.3-0.1,2-0.2c0.6-0.1,1.3-0.3,1.9-0.6
	s1.2-0.6,1.7-0.9c0.5-0.4,1.1-0.8,1.5-1.2c0.5-0.5,0.9-1,1.2-1.5c0.4-0.5,0.7-1.1,0.9-1.7c0.3-0.6,0.4-1.2,0.6-1.9
	c0.1-0.7,0.2-1.3,0.2-2c0-0.6-0.1-1.3-0.2-1.9c-0.1-0.6-0.3-1.3-0.6-1.9S313.1,231.8,312.7,231.2z"/>
<path class="st3e" d="M145.8,246.8h118.5c5.5,0,10-4.5,10-10s-4.5-10-10-10H145.8c-5.5,0-10,4.5-10,10S140.3,246.8,145.8,246.8z"/>
<path class="st3e" d="M145.8,320.3h158.5c5.5,0,10-4.5,10-10c0-5.5-4.5-10-10-10H145.8c-5.5,0-10,4.5-10,10
	C135.8,315.8,140.3,320.3,145.8,320.3z"/>
<path class="st3e" d="M260.2,373.9H145.8c-5.5,0-10,4.5-10,10s4.5,10,10,10h114.3c5.5,0,10-4.5,10-10S265.7,373.9,260.2,373.9z"/>
<path class="st3e" d="M406.1,377c-18.1,19.2-31.9,48.6-38.7,64.8l-30.9-19.8c-4.6-3-10.8-1.6-13.8,3s-1.6,10.8,3,13.8l41.2,26.4
	c1.6,1,3.5,1.6,5.4,1.6c1.1,0,2.2-0.2,3.2-0.5c2.9-1,5.2-3.2,6.2-6.1c0.2-0.4,16.3-45.3,39-69.4c3.8-4,3.6-10.3-0.4-14.1
	C416.2,372.8,409.9,373,406.1,377z"/>
</svg>
