<svg height="511pt" viewBox="0 1 511 511.999" width="511pt" xmlns="http://www.w3.org/2000/svg"><path d="m60.015625 243.644531h-39.5c-5.53125 0-10.015625 4.484375-10.015625 10.015625v207.519532c0 22.542968 18.277344 40.820312 40.820312 40.820312 0 0 7.011719-.074219 8.695313-.226562zm0 0" fill="#ffdf85"/><path d="m398.714844 87.5v91.644531h66.164062v-149.699219c0-10.738281-8.703125-19.445312-19.445312-19.445312h-185.152344c-10.742188 0-19.445312 8.707031-19.445312 19.445312v38.609376h138.433593c10.738281 0 19.445313 8.703124 19.445313 19.445312zm0 0" fill="#3df399"/><path d="m267.246094 123.996094c10.742187 0 19.449218 8.703125 19.449218 19.445312v100.203125h58.378907c9.457031 0 17.121093-7.664062 17.121093-17.117187v-32.703125c0-8.109375 6.570313-14.679688 14.679688-14.679688h21.839844v-91.644531c0-10.738281-8.703125-19.445312-19.441406-19.445312h-185.15625c-10.742188 0-19.445313 8.707031-19.445313 19.445312v36.496094zm0 0" fill="#ff2d83"/><path d="m112.21875 444.6875v-175.414062c0-14.15625 11.472656-25.628907 25.628906-25.628907h148.847656v-100.203125c0-10.742187-8.707031-19.445312-19.449218-19.445312h-187.78125c-10.742188 0-19.449219 8.703125-19.449219 19.445312v358.332032c29.261719-2.585938 52.203125-27.15625 52.203125-57.085938zm0 0" fill="#00b8ff"/><path d="m487.539062 179.144531h-110.667968c-8.105469 0-14.679688 6.570313-14.679688 14.679688v32.703125c0 9.453125-7.664062 17.117187-17.117187 17.117187h-207.226563c-14.15625 0-25.628906 11.472657-25.628906 25.628907v175.414062c0 29.929688-22.941406 54.5-52.199219 57.085938-1.683593.152343 411.9375.226562 411.9375.226562 16.714844 0 30.261719-13.546875 30.261719-30.261719v-277.914062c0-8.109375-6.570312-14.679688-14.679688-14.679688zm0 0" fill="#fb0"/><path d="m202.835938 233.644531c-5.519532 0-10 4.476563-10 10 0 5.523438 4.480468 10 10 10h.027343c5.519531 0 9.984375-4.476562 9.984375-10 0-5.523437-4.488281-10-10.011718-10zm0 0"/><path d="m487.539062 169.144531h-12.660156v-138.992187c0-16.628906-13.527344-30.152344-30.152344-30.152344h-183.738281c-16.628906 0-30.152343 13.523438-30.152343 30.152344v27.898437h-36.011719c-16.628907 0-30.152344 13.527344-30.152344 30.152344v25.789063h-84.5c-16.628906 0-30.152344 13.527343-30.152344 30.152343v89.5h-29.140625c-11.238281 0-20.378906 9.140625-20.378906 20.378907v205.671874c0 28.839844 23.460938 52.304688 52.300781 52.304688h419.15625c22.199219 0 40.261719-18.0625 40.261719-40.261719v-277.914062c0-13.609375-11.070312-24.679688-24.679688-24.679688zm-236.703124-138.992187c0-5.597656 4.554687-10.152344 10.152343-10.152344h183.738281c5.597657 0 10.152344 4.554688 10.152344 10.152344v138.988281h-46.164062v-80.9375c0-16.625-13.523438-30.148437-30.152344-30.148437h-127.726562zm-66.164063 58.050781c0-5.597656 4.554687-10.148437 10.152344-10.148437h183.738281c5.597656 0 10.152344 4.554687 10.152344 10.148437v80.941406h-11.84375c-13.609375 0-24.679688 11.070313-24.679688 24.679688v32.703125c0 3.925781-3.191406 7.117187-7.117187 7.117187h-48.382813v-89.496093c0-16.628907-13.523437-30.152344-30.152344-30.152344h-81.871093v-25.792969zm-164.171875 371.492187c.179688-214.078124-.371094-206.050781.382812-206.050781h29.136719v238.234375c-16.515625-1.417968-29.519531-15.308594-29.519531-32.183594zm471.71875 12.042969c0 11.171875-9.089844 20.261719-20.261719 20.261719h-369.214843c12.035156-12.167969 19.476562-28.886719 19.476562-47.3125v-175.414062c0-8.617188 7.011719-15.628907 15.628906-15.628907h23.535156c5.523438 0 10-4.480469 10-10 0-5.523437-4.476562-10-10-10h-23.535156c-19.644531 0-35.628906 15.984375-35.628906 35.628907v175.414062c0 20.804688-13.5 38.515625-32.199219 44.835938v-345.378907c0-5.597656 4.554688-10.152343 10.152344-10.152343h186.371094c5.597656 0 10.148437 4.558593 10.148437 10.152343v89.5h-32.402344c-5.523437 0-10 4.476563-10 10 0 5.519531 4.476563 10 10 10h100.785157c14.953125 0 27.117187-12.164062 27.117187-27.117187v-32.703125c0-2.582031 2.101563-4.683594 4.683594-4.683594h110.664062c2.582032 0 4.679688 2.101563 4.679688 4.683594zm0 0"/></svg>