<?xml version="1.0" encoding="iso-8859-1"?>
<!-- Generator: Adobe Illustrator 19.0.0, SVG Export Plug-In . SVG Version: 6.00 Build 0)  -->
<svg version="1.1" id="Capa_1" xmlns="http://www.w3.org/2000/svg" xmlns:xlink="http://www.w3.org/1999/xlink" x="0px" y="0px"
	 viewBox="0 0 512 512" style="enable-background:new 0 0 512 512;" xml:space="preserve">
<path style="fill:#EF487D;" d="M512,256c0,57.01-18.641,109.672-50.155,152.221c-11.588,15.642-24.921,29.926-39.706,42.548
	C377.428,488.95,319.415,512,256,512c-36.728,0-71.638-7.732-103.205-21.661c-13.636-6.008-26.645-13.176-38.902-21.379
	c-8.38-5.59-16.394-11.672-24.033-18.192c-14.785-12.622-28.118-26.906-39.706-42.548C18.641,365.672,0,313.01,0,256
	s18.641-109.672,50.155-152.221c19.853-26.802,44.816-49.591,73.446-66.926C162.231,13.458,207.538,0,256,0
	c0.334,0,0.669,0,1.003,0.01c48.086,0.178,93.038,13.605,131.396,36.843c28.63,17.335,53.593,40.124,73.446,66.926
	C493.359,146.327,512,198.99,512,256z"/>
<path style="fill:#FF668C;" d="M476.615,220.615c0,49.129-16.064,94.513-43.222,131.18c-9.986,13.48-21.476,25.789-34.217,36.668
	c-38.531,32.903-88.525,52.767-143.174,52.767c-31.651,0-61.736-6.663-88.94-18.667c-11.751-5.177-22.962-11.355-33.525-18.424
	c-7.221-4.817-14.128-10.058-20.711-15.677c-12.741-10.877-24.231-23.187-34.217-36.668c-27.158-36.667-43.222-82.051-43.222-131.18
	s16.063-94.513,43.221-131.18c17.109-23.097,38.622-42.736,63.294-57.675C175.192,11.598,214.236,0,256,0
	c0.288,0,0.577,0,0.864,0.009c41.44,0.153,80.178,11.724,113.234,31.75c24.673,14.939,46.186,34.578,63.294,57.675
	C460.55,126.101,476.615,171.486,476.615,220.615z"/>
<path style="fill:#343A6E;" d="M461.845,74.898v333.322c-11.588,15.642-24.921,29.926-39.706,42.548
	C377.428,488.95,319.415,512,256,512c-36.728,0-71.638-7.732-103.205-21.661c-13.636-6.008-26.645-13.176-38.902-21.379
	c-8.38-5.59-16.394-11.672-24.033-18.192c-14.785-12.622-28.118-26.906-39.706-42.548V74.898c0-21.013,17.032-38.045,38.045-38.045
	h335.6C444.813,36.854,461.845,53.885,461.845,74.898z"/>
<path style="fill:#F0F0F0;" d="M422.139,146.516v304.253C377.428,488.95,319.415,512,256,512c-36.728,0-71.638-7.732-103.205-21.661
	c-13.636-6.008-26.645-13.176-38.902-21.379c-8.38-5.59-16.394-11.672-24.033-18.192V146.516c0-13.249,10.731-23.98,23.97-23.98
	h284.327C411.397,122.535,422.139,133.266,422.139,146.516z"/>
<path style="fill:#F2AE5A;" d="M357.874,47.084v67.312c0,12.581-10.188,22.768-22.768,22.768H176.888
	c-12.581,0-22.768-10.188-22.768-22.768V47.084c0-12.581,10.188-22.768,22.768-22.768h39.832
	c7.189-14.409,22.079-24.315,39.278-24.315c2.675,0,5.298,0.24,7.837,0.7c12.037,2.163,22.361,9.247,28.829,19.08
	c0.084,0.125,0.157,0.24,0.23,0.366c0.616,0.951,1.202,1.933,1.735,2.936c0.24,0.439,0.46,0.857,0.648,1.233h39.832
	C347.687,24.316,357.874,34.504,357.874,47.084z"/>
<path style="fill:#F9DF73;" d="M357.874,47.084v67.312c0,12.581-10.188,22.768-22.768,22.768H192.561
	c-12.581,0-22.768-10.188-22.768-22.768V47.084c0-12.581,10.188-22.768,22.768-22.768h24.158
	c7.189-14.409,22.079-24.315,39.278-24.315c2.675,0,5.298,0.24,7.837,0.7c12.037,2.163,22.361,9.247,28.829,19.08
	c0.084,0.125,0.157,0.24,0.23,0.366c0.669,1.076,1.254,2.069,1.735,2.936c0.24,0.439,0.46,0.857,0.648,1.233h39.832
	C347.687,24.316,357.874,34.504,357.874,47.084z"/>
<circle style="fill:#343A6E;" cx="256" cy="35.809" r="15.151"/>
<path style="fill:#F2AE5A;" d="M312.421,103.728H199.572c-6.059,0-10.971-4.912-10.971-10.971l0,0
	c0-6.059,4.912-10.971,10.971-10.971h112.849c6.059,0,10.971,4.912,10.971,10.971l0,0
	C323.393,98.816,318.481,103.728,312.421,103.728z"/>
<path style="fill:#5897D1;" d="M190.171,264.641h-65.829c-5.77,0-10.449-4.678-10.449-10.449v-65.829
	c0-5.771,4.679-10.449,10.449-10.449h65.829c5.77,0,10.449,4.678,10.449,10.449v65.829
	C200.62,259.963,195.941,264.641,190.171,264.641z M134.792,243.743h44.931v-44.931h-44.931V243.743z"/>
<g>
	<path style="fill:#484B7F;" d="M295.706,211.352h-65.829c-5.77,0-10.449-4.678-10.449-10.449s4.679-10.449,10.449-10.449h65.829
		c5.77,0,10.449,4.678,10.449,10.449S301.476,211.352,295.706,211.352z"/>
	<path style="fill:#484B7F;" d="M377.208,252.103H229.878c-5.77,0-10.449-4.678-10.449-10.449s4.679-10.449,10.449-10.449h147.331
		c5.77,0,10.449,4.678,10.449,10.449S382.978,252.103,377.208,252.103z"/>
</g>
<path style="fill:#5897D1;" d="M190.171,377.49h-65.829c-5.77,0-10.449-4.678-10.449-10.449v-65.829
	c0-5.771,4.679-10.449,10.449-10.449h65.829c5.77,0,10.449,4.678,10.449,10.449v65.829
	C200.62,372.812,195.941,377.49,190.171,377.49z M134.792,356.592h44.931v-44.931h-44.931V356.592z"/>
<g>
	<path style="fill:#484B7F;" d="M295.706,324.2h-65.829c-5.77,0-10.449-4.678-10.449-10.449c0-5.771,4.679-10.449,10.449-10.449
		h65.829c5.77,0,10.449,4.678,10.449,10.449C306.155,319.522,301.476,324.2,295.706,324.2z"/>
	<path style="fill:#484B7F;" d="M377.208,364.951H229.878c-5.77,0-10.449-4.678-10.449-10.449c0-5.771,4.679-10.449,10.449-10.449
		h147.331c5.77,0,10.449,4.678,10.449,10.449C387.657,360.273,382.978,364.951,377.208,364.951z"/>
</g>
<path style="fill:#5897D1;" d="M190.171,403.613h-65.829c-5.768,0-10.449,4.681-10.449,10.449v54.899
	c12.257,8.202,25.266,15.37,38.902,21.379h37.376c5.768,0,10.449-4.681,10.449-10.449v-65.829
	C200.62,408.294,195.939,403.613,190.171,403.613z M179.722,469.441h-44.931v-44.931h44.931V469.441z"/>
<g>
	<path style="fill:#484B7F;" d="M295.706,437.049h-65.829c-5.77,0-10.449-4.678-10.449-10.449c0-5.771,4.679-10.449,10.449-10.449
		h65.829c5.77,0,10.449,4.678,10.449,10.449C306.155,432.371,301.476,437.049,295.706,437.049z"/>
	<path style="fill:#484B7F;" d="M377.208,477.8H229.878c-5.77,0-10.449-4.678-10.449-10.449c0-5.771,4.679-10.449,10.449-10.449
		h147.331c5.77,0,10.449,4.678,10.449,10.449C387.657,473.122,382.978,477.8,377.208,477.8z"/>
</g>
<path style="fill:#EF487D;" d="M156.733,368.085c-3.475,0-6.746-1.733-8.691-4.653l-33.437-50.155
	c-3.201-4.801-1.904-11.289,2.898-14.49c4.802-3.201,11.289-1.904,14.49,2.899l23.2,34.799l29.716-62.734
	c2.469-5.215,8.7-7.441,13.916-4.97c5.215,2.47,7.44,8.701,4.97,13.916l-37.616,79.411c-1.611,3.402-4.929,5.674-8.683,5.949
	C157.239,368.076,156.985,368.085,156.733,368.085z"/>
<g>
</g>
<g>
</g>
<g>
</g>
<g>
</g>
<g>
</g>
<g>
</g>
<g>
</g>
<g>
</g>
<g>
</g>
<g>
</g>
<g>
</g>
<g>
</g>
<g>
</g>
<g>
</g>
<g>
</g>
</svg>
