<?xml version="1.0" encoding="utf-8"?>
<!-- Generator: Adobe Illustrator 21.1.0, SVG Export Plug-In . SVG Version: 6.00 Build 0)  -->
<svg version="1.1" id="Ñëîé_1" xmlns="http://www.w3.org/2000/svg" xmlns:xlink="http://www.w3.org/1999/xlink" x="0px" y="0px"
	 viewBox="0 0 306 303.3" style="enable-background:new 0 0 306 303.3;" xml:space="preserve">
<style type="text/css">
	.st0{fill:url(#SVGID_1_);}
	.st1{opacity:0.5;fill:url(#SVGID_2_);}
	.st2{fill:#6DE0F6;}
	.st3{fill:#25BFEC;}
	.st4{fill:url(#SVGID_3_);}
	.st5{fill:#6EE8FC;}
	.st6{fill:url(#SVGID_4_);}
	.st7{fill:#F88B93;}
	.st8{fill:url(#SVGID_5_);}
	.st9{clip-path:url(#SVGID_7_);fill:#267FE5;}
	.st10{clip-path:url(#SVGID_7_);fill:#25BFEC;}
	.st11{clip-path:url(#SVGID_7_);fill:#18D0F7;}
	.st12{fill:url(#SVGID_8_);}
	.st13{fill:url(#SVGID_9_);}
	.st14{fill:url(#SVGID_10_);}
	.st15{clip-path:url(#SVGID_12_);fill:#267FE5;}
	.st16{clip-path:url(#SVGID_12_);fill:#25BFEC;}
	.st17{clip-path:url(#SVGID_12_);fill:#18D0F7;}
	.st18{fill:url(#SVGID_13_);}
	.st19{fill:url(#SVGID_14_);}
	.st20{fill:url(#SVGID_15_);}
	.st21{clip-path:url(#SVGID_17_);fill:#267FE5;}
	.st22{clip-path:url(#SVGID_17_);fill:#25BFEC;}
	.st23{clip-path:url(#SVGID_17_);fill:#18D0F7;}
	.st24{fill:url(#SVGID_18_);}
	.st25{fill:#267FE5;}
	.st26{opacity:0.5;fill:#0F133B;}
</style>
<g>
	<linearGradient id="SVGID_1_" gradientUnits="userSpaceOnUse" x1="52.3171" y1="220.1985" x2="258.3151" y2="220.1985">
		<stop  offset="0" style="stop-color:#D4088C"/>
		<stop  offset="0.2258" style="stop-color:#D4088C"/>
		<stop  offset="0.5108" style="stop-color:#6EE1F8"/>
		<stop  offset="0.7796" style="stop-color:#6EE8FC"/>
		<stop  offset="1" style="stop-color:#6EE8FC"/>
	</linearGradient>
	<path class="st0" d="M154.6,279.9c-4,0-7.9-0.8-10.7-2.5l-87.1-50.3c-2.9-1.6-4.4-4-4.4-6.5c0-3,2.2-6.1,6.2-8.3l83.6-48.3
		c7.3-4.2,18.3-4.7,24.7-1l87.1,50.3c2.9,1.6,4.4,4,4.4,6.5c0,3-2.2,6.1-6.2,8.3l-83.6,48.3C164.5,278.7,159.4,279.9,154.6,279.9z
		 M144.4,276.5c6,3.5,16.7,3,23.7-1l83.6-48.3c3.6-2.1,5.7-4.8,5.7-7.5c0-2.2-1.4-4.2-3.9-5.6l-87.1-50.3c-6-3.5-16.7-3-23.7,1
		L59,213.2c-3.6,2.1-5.7,4.8-5.7,7.5c0,2.2,1.4,4.2,3.9,5.6L144.4,276.5z"/>
	<linearGradient id="SVGID_2_" gradientUnits="userSpaceOnUse" x1="52.3171" y1="204.2495" x2="258.3151" y2="204.2495">
		<stop  offset="0" style="stop-color:#D4088C"/>
		<stop  offset="0.2258" style="stop-color:#D4088C"/>
		<stop  offset="0.5108" style="stop-color:#6EE1F8"/>
		<stop  offset="0.7796" style="stop-color:#6EE8FC"/>
		<stop  offset="1" style="stop-color:#6EE8FC"/>
	</linearGradient>
	<path class="st1" d="M154.6,263.9c-4,0-7.9-0.8-10.7-2.5l-87.1-50.3c-2.9-1.6-4.4-4-4.4-6.5c0-3,2.2-6.1,6.2-8.3l83.6-48.3
		c7.3-4.2,18.3-4.7,24.7-1l87.1,50.3c2.9,1.6,4.4,4,4.4,6.5c0,3-2.2,6.1-6.2,8.3l-83.6,48.3C164.5,262.7,159.4,263.9,154.6,263.9z
		 M144.4,260.6c6,3.5,16.7,3,23.7-1l83.6-48.3c3.6-2.1,5.7-4.8,5.7-7.5c0-2.2-1.4-4.2-3.9-5.6l-87.1-50.3c-6-3.5-16.7-3-23.7,1
		L59,197.2c-3.6,2.1-5.7,4.8-5.7,7.5c0,2.2,1.4,4.2,3.9,5.6L144.4,260.6z"/>
	<g>
		<path class="st2" d="M145.6,269.2l-75.1-43.4c-5.3-3.1-4.7-8.5,1.5-12l72.1-41.6c6.2-3.6,15.5-3.9,20.8-0.9l75.1,43.4
			c5.3,3.1,4.7,8.5-1.5,12l-72.1,41.6C160.3,271.9,151,272.2,145.6,269.2z"/>
		<path class="st3" d="M68.9,224.6c0.8-0.9,1.8-1.7,3.1-2.4l72.1-41.6c6.2-3.6,15.5-3.9,20.8-0.9l75.1,43.4c0.6,0.4,1.2,0.8,1.6,1.2
			c3.1-3.3,2.6-7.2-1.6-9.6L165,171.2c-5.3-3.1-14.7-2.7-20.8,0.9L72,213.8C66.6,216.9,65.4,221.5,68.9,224.6z"/>
		<circle class="st2" cx="201.6" cy="210" r="8.8"/>
		<circle class="st2" cx="220.1" cy="210.9" r="4.5"/>
		<circle class="st2" cx="218.4" cy="200.4" r="1.8"/>
		<g>
			<g>
				
					<linearGradient id="SVGID_3_" gradientUnits="userSpaceOnUse" x1="1689.2048" y1="174.6793" x2="1864.525" y2="174.6793" gradientTransform="matrix(1 0 0 1 -1619.46 0)">
					<stop  offset="0" style="stop-color:#A31FA9"/>
					<stop  offset="6.679147e-02" style="stop-color:#8B17A0"/>
					<stop  offset="0.1494" style="stop-color:#740F98"/>
					<stop  offset="0.2393" style="stop-color:#640A92"/>
					<stop  offset="0.3408" style="stop-color:#5B078F"/>
					<stop  offset="0.4785" style="stop-color:#58068E"/>
					<stop  offset="0.6264" style="stop-color:#4D22A3"/>
					<stop  offset="0.9436" style="stop-color:#3168DA"/>
					<stop  offset="1" style="stop-color:#2C75E4"/>
				</linearGradient>
				<path class="st4" d="M227.3,120.6h-30.3l-33.8-19.5c-4.3-2.5-11.9-2.2-17,0.7l-32.5,18.8H83.4v87.7h0c-0.1,1.7,0.8,3.3,2.9,4.5
					l61.1,35.3c4.3,2.5,11.9,2.2,17-0.7l58.7-33.9c2.6-1.5,4-3.4,4.1-5.2h0V120.6z"/>
				<path class="st5" d="M226.4,120.6v88.7h0c-0.1,0.9-0.4,1.8-1,2.7c1.2-1.1,1.8-2.4,1.9-3.6h0v-87.7H226.4z"/>
				
					<linearGradient id="SVGID_4_" gradientUnits="userSpaceOnUse" x1="1306.5839" y1="-119.1471" x2="1389.2827" y2="-190.7665" gradientTransform="matrix(0.866 0.5 -1 0.5774 -1168.4723 -463.8663)">
					<stop  offset="0" style="stop-color:#8D139B"/>
					<stop  offset="0.1651" style="stop-color:#851BA1"/>
					<stop  offset="0.4284" style="stop-color:#6E33B2"/>
					<stop  offset="0.7551" style="stop-color:#4958CD"/>
					<stop  offset="1" style="stop-color:#2979E4"/>
				</linearGradient>
				<path class="st6" d="M147.4,160.5l-61.1-35.3c-4.3-2.5-3.8-6.9,1.2-9.8l58.7-33.9c5-2.9,12.6-3.2,17-0.7l61.1,35.3
					c4.3,2.5,3.8,6.9-1.2,9.8l-58.7,33.9C159.4,162.7,151.8,163,147.4,160.5z"/>
				<path class="st7" d="M148.6,160.5l-61.1-35.3c-4.3-2.5-3.8-6.9,1.2-9.8l58.7-33.9c2.6-1.5,5.8-2.3,9-2.4
					c-3.5-0.1-7.3,0.7-10.2,2.4l-58.7,33.9c-5,2.9-5.6,7.3-1.2,9.8l61.1,35.3c2.1,1.2,5,1.8,8,1.7
					C152.9,162.1,150.5,161.5,148.6,160.5z"/>
				<path class="st5" d="M224.3,116.1l-61.1-35.3c-2.1-1.2-5-1.8-8-1.7c2.5,0.1,4.9,0.6,6.8,1.7l61.1,35.3c4.3,2.5,3.8,6.9-1.2,9.8
					l-58.7,33.9c-2.6,1.5-5.8,2.3-8.9,2.4c3.5,0.1,7.3-0.7,10.2-2.4l58.7-33.9C228.1,123,228.7,118.6,224.3,116.1z"/>
				
					<linearGradient id="SVGID_5_" gradientUnits="userSpaceOnUse" x1="1317.3712" y1="-128.4892" x2="1378.9404" y2="-181.8097" gradientTransform="matrix(0.866 0.5 -1 0.5774 -1168.4723 -463.8663)">
					<stop  offset="0" style="stop-color:#630692"/>
					<stop  offset="0.2262" style="stop-color:#5B0E94"/>
					<stop  offset="0.587" style="stop-color:#432399"/>
					<stop  offset="1" style="stop-color:#2142A1"/>
				</linearGradient>
				<path class="st8" d="M149.4,150.3L103.9,124c-3.2-1.9-2.8-5.1,0.9-7.3l43.7-25.2c3.7-2.2,9.4-2.4,12.6-0.5l45.5,26.3
					c3.2,1.9,2.8,5.1-0.9,7.3l-43.7,25.2C158.3,151.9,152.7,152.2,149.4,150.3z"/>
				<g>
					<defs>
						<path id="SVGID_6_" d="M151.1,142.1l-33-19c-2.3-1.4-2.1-3.7,0.7-5.3l31.7-18.3c2.7-1.6,6.8-1.7,9.1-0.4l33,19
							c2.3,1.4,2.1,3.7-0.7,5.3l-31.7,18.3C157.5,143.3,153.4,143.5,151.1,142.1z"/>
					</defs>
					<use xlink:href="#SVGID_6_"  style="overflow:visible;fill:#6DE0F6;"/>
					<clipPath id="SVGID_7_">
						<use xlink:href="#SVGID_6_"  style="overflow:visible;"/>
					</clipPath>
					<path class="st9" d="M118.7,120.4l31.7-18.3c2.7-1.6,6.8-1.7,9.2-0.4l33,19c0.5,0.3,0.9,0.7,1.2,1c0.8-1.3,0.5-2.7-1.2-3.6
						l-33-19c-2.3-1.4-6.4-1.2-9.2,0.4l-31.7,18.3c-2.1,1.2-2.7,2.9-1.8,4.2C117.3,121.4,117.9,120.9,118.7,120.4z"/>
					<path class="st10" d="M118.7,123.5l31.7-18.3c2.7-1.6,6.8-1.7,9.2-0.4l33,19c0.4,0.2,0.7,0.5,1,0.8c1-1.4,0.8-2.9-1-3.9l-33-19
						c-2.3-1.4-6.4-1.2-9.2,0.4l-31.7,18.3c-2.2,1.3-2.8,3.1-1.6,4.5C117.5,124.4,118,123.9,118.7,123.5z"/>
					<path class="st11" d="M117.4,128.3c0.3-0.4,0.8-0.7,1.3-1l31.7-18.3c2.7-1.6,6.8-1.7,9.2-0.4l33,19c0.3,0.1,0.5,0.3,0.6,0.5
						c1.4-1.5,1.2-3.2-0.6-4.3l-33-19c-2.3-1.4-6.4-1.2-9.2,0.4l-31.7,18.3C116.3,124.9,115.8,126.9,117.4,128.3z"/>
				</g>
			</g>
			<g>
				
					<linearGradient id="SVGID_8_" gradientUnits="userSpaceOnUse" x1="1689.2048" y1="119.372" x2="1864.525" y2="119.372" gradientTransform="matrix(1 0 0 1 -1619.46 0)">
					<stop  offset="0" style="stop-color:#A31FA9"/>
					<stop  offset="6.679147e-02" style="stop-color:#8B17A0"/>
					<stop  offset="0.1494" style="stop-color:#740F98"/>
					<stop  offset="0.2393" style="stop-color:#640A92"/>
					<stop  offset="0.3408" style="stop-color:#5B078F"/>
					<stop  offset="0.4785" style="stop-color:#58068E"/>
					<stop  offset="0.6264" style="stop-color:#4D22A3"/>
					<stop  offset="0.9436" style="stop-color:#3168DA"/>
					<stop  offset="1" style="stop-color:#2C75E4"/>
				</linearGradient>
				<path class="st12" d="M227.3,106.1h-30.3l-33.8-19.5c-4.3-2.5-11.9-2.2-17,0.7l-32.5,18.8H83.4v6.3h0c-0.1,1.7,0.8,3.3,2.9,4.5
					l61.1,35.3c4.3,2.5,11.9,2.2,17-0.7l58.7-33.9c2.6-1.5,4-3.4,4.1-5.2h0V106.1z"/>
				<path class="st5" d="M226.4,106.1v7.2h0c-0.1,0.9-0.4,1.8-1,2.6c1.2-1.1,1.8-2.4,1.9-3.6h0v-6.3H226.4z"/>
				
					<linearGradient id="SVGID_9_" gradientUnits="userSpaceOnUse" x1="1292.0171" y1="-131.7619" x2="1374.7161" y2="-203.3813" gradientTransform="matrix(0.866 0.5 -1 0.5774 -1168.4723 -463.8663)">
					<stop  offset="0" style="stop-color:#8D139B"/>
					<stop  offset="0.1651" style="stop-color:#851BA1"/>
					<stop  offset="0.4284" style="stop-color:#6E33B2"/>
					<stop  offset="0.7551" style="stop-color:#4958CD"/>
					<stop  offset="1" style="stop-color:#2979E4"/>
				</linearGradient>
				<path class="st13" d="M147.4,145.9l-61.1-35.3c-4.3-2.5-3.8-6.9,1.2-9.8l58.7-33.9c5-2.9,12.6-3.2,17-0.7l61.1,35.3
					c4.3,2.5,3.8,6.9-1.2,9.8l-58.7,33.9C159.4,148.1,151.8,148.4,147.4,145.9z"/>
				<path class="st7" d="M148.6,145.9l-61.1-35.3c-4.3-2.5-3.8-6.9,1.2-9.8l58.7-33.9c2.6-1.5,5.8-2.3,9-2.4
					c-3.5-0.1-7.3,0.7-10.2,2.4l-58.7,33.9c-5,2.9-5.6,7.3-1.2,9.8l61.1,35.3c2.1,1.2,5,1.8,8,1.7
					C152.9,147.5,150.5,147,148.6,145.9z"/>
				<path class="st5" d="M224.3,101.5l-61.1-35.3c-2.1-1.2-5-1.8-8-1.7c2.5,0.1,4.9,0.6,6.8,1.7l61.1,35.3c4.3,2.5,3.8,6.9-1.2,9.8
					l-58.7,33.9c-2.6,1.5-5.8,2.3-8.9,2.4c3.5,0.1,7.3-0.7,10.2-2.4l58.7-33.9C228.1,108.4,228.7,104,224.3,101.5z"/>
				
					<linearGradient id="SVGID_10_" gradientUnits="userSpaceOnUse" x1="1302.8044" y1="-141.104" x2="1364.3737" y2="-194.4245" gradientTransform="matrix(0.866 0.5 -1 0.5774 -1168.4723 -463.8663)">
					<stop  offset="0" style="stop-color:#630692"/>
					<stop  offset="0.2262" style="stop-color:#5B0E94"/>
					<stop  offset="0.587" style="stop-color:#432399"/>
					<stop  offset="1" style="stop-color:#2142A1"/>
				</linearGradient>
				<path class="st14" d="M149.4,135.7l-45.5-26.3c-3.2-1.9-2.8-5.1,0.9-7.3l43.7-25.2c3.7-2.2,9.4-2.4,12.6-0.5l45.5,26.3
					c3.2,1.9,2.8,5.1-0.9,7.3l-43.7,25.2C158.3,137.4,152.7,137.6,149.4,135.7z"/>
				<g>
					<defs>
						<path id="SVGID_11_" d="M151.1,127.6l-33-19c-2.3-1.4-2.1-3.7,0.7-5.3l31.7-18.3c2.7-1.6,6.8-1.7,9.1-0.4l33,19
							c2.3,1.4,2.1,3.7-0.7,5.3l-31.7,18.3C157.5,128.7,153.4,128.9,151.1,127.6z"/>
					</defs>
					<use xlink:href="#SVGID_11_"  style="overflow:visible;fill:#6DE0F6;"/>
					<clipPath id="SVGID_12_">
						<use xlink:href="#SVGID_11_"  style="overflow:visible;"/>
					</clipPath>
					<path class="st15" d="M118.7,105.8l31.7-18.3c2.7-1.6,6.8-1.7,9.2-0.4l33,19c0.5,0.3,0.9,0.7,1.2,1c0.8-1.3,0.5-2.7-1.2-3.6
						l-33-19c-2.3-1.4-6.4-1.2-9.2,0.4l-31.7,18.3c-2.1,1.2-2.7,2.9-1.8,4.2C117.3,106.9,117.9,106.3,118.7,105.8z"/>
					<path class="st16" d="M118.7,108.9l31.7-18.3c2.7-1.6,6.8-1.7,9.2-0.4l33,19c0.4,0.2,0.7,0.5,1,0.8c1-1.4,0.8-2.9-1-3.9l-33-19
						c-2.3-1.4-6.4-1.2-9.2,0.4l-31.7,18.3c-2.2,1.3-2.8,3.1-1.6,4.5C117.5,109.8,118,109.3,118.7,108.9z"/>
					<path class="st17" d="M117.4,113.7c0.3-0.4,0.8-0.7,1.3-1l31.7-18.3c2.7-1.6,6.8-1.7,9.2-0.4l33,19c0.3,0.1,0.5,0.3,0.6,0.5
						c1.4-1.5,1.2-3.2-0.6-4.3l-33-19c-2.3-1.4-6.4-1.2-9.2,0.4l-31.7,18.3C116.3,110.3,115.8,112.3,117.4,113.7z"/>
				</g>
			</g>
			<g>
				
					<linearGradient id="SVGID_13_" gradientUnits="userSpaceOnUse" x1="1689.2048" y1="106.9621" x2="1864.525" y2="106.9621" gradientTransform="matrix(1 0 0 1 -1619.46 0)">
					<stop  offset="0" style="stop-color:#A31FA9"/>
					<stop  offset="6.679147e-02" style="stop-color:#8B17A0"/>
					<stop  offset="0.1494" style="stop-color:#740F98"/>
					<stop  offset="0.2393" style="stop-color:#640A92"/>
					<stop  offset="0.3408" style="stop-color:#5B078F"/>
					<stop  offset="0.4785" style="stop-color:#58068E"/>
					<stop  offset="0.6264" style="stop-color:#4D22A3"/>
					<stop  offset="0.9436" style="stop-color:#3168DA"/>
					<stop  offset="1" style="stop-color:#2C75E4"/>
				</linearGradient>
				<path class="st18" d="M227.3,93.7h-30.3l-33.8-19.5c-4.3-2.5-11.9-2.2-17,0.7l-32.5,18.8H83.4v6.3h0c-0.1,1.7,0.8,3.3,2.9,4.5
					l61.1,35.3c4.3,2.5,11.9,2.2,17-0.7l58.7-33.9c2.6-1.5,4-3.4,4.1-5.2h0V93.7z"/>
				<path class="st5" d="M226.4,93.7v7.2h0c-0.1,0.9-0.4,1.8-1,2.7c1.2-1.1,1.8-2.4,1.9-3.6h0v-6.3H226.4z"/>
				
					<linearGradient id="SVGID_14_" gradientUnits="userSpaceOnUse" x1="1279.6077" y1="-142.5085" x2="1362.3065" y2="-214.1279" gradientTransform="matrix(0.866 0.5 -1 0.5774 -1168.4723 -463.8663)">
					<stop  offset="0" style="stop-color:#8D139B"/>
					<stop  offset="0.1651" style="stop-color:#851BA1"/>
					<stop  offset="0.4284" style="stop-color:#6E33B2"/>
					<stop  offset="0.7551" style="stop-color:#4958CD"/>
					<stop  offset="1" style="stop-color:#2979E4"/>
				</linearGradient>
				<path class="st19" d="M147.4,133.5L86.3,98.2c-4.3-2.5-3.8-6.9,1.2-9.8l58.7-33.9c5-2.9,12.6-3.2,17-0.7l61.1,35.3
					c4.3,2.5,3.8,6.9-1.2,9.8l-58.7,33.9C159.4,135.7,151.8,136,147.4,133.5z"/>
				<path class="st7" d="M148.6,133.5L87.5,98.2c-4.3-2.5-3.8-6.9,1.2-9.8l58.7-33.9c2.6-1.5,5.8-2.3,9-2.4
					c-3.5-0.1-7.3,0.7-10.2,2.4L87.5,88.4c-5,2.9-5.6,7.3-1.2,9.8l61.1,35.3c2.1,1.2,5,1.8,8,1.7
					C152.9,135.1,150.5,134.6,148.6,133.5z"/>
				<path class="st5" d="M224.3,89.1l-61.1-35.3c-2.1-1.2-5-1.8-8-1.7c2.5,0.1,4.9,0.6,6.8,1.7l61.1,35.3c4.3,2.5,3.8,6.9-1.2,9.8
					l-58.7,33.9c-2.6,1.5-5.8,2.3-8.9,2.4c3.5,0.1,7.3-0.7,10.2-2.4l58.7-33.9C228.1,96,228.7,91.6,224.3,89.1z"/>
				
					<linearGradient id="SVGID_15_" gradientUnits="userSpaceOnUse" x1="1290.395" y1="-151.8506" x2="1351.9641" y2="-205.1711" gradientTransform="matrix(0.866 0.5 -1 0.5774 -1168.4723 -463.8663)">
					<stop  offset="0" style="stop-color:#630692"/>
					<stop  offset="0.2262" style="stop-color:#5B0E94"/>
					<stop  offset="0.587" style="stop-color:#432399"/>
					<stop  offset="1" style="stop-color:#2142A1"/>
				</linearGradient>
				<path class="st20" d="M149.4,123.3L103.9,97c-3.2-1.9-2.8-5.1,0.9-7.3l43.7-25.2c3.7-2.2,9.4-2.4,12.6-0.5l45.5,26.3
					c3.2,1.9,2.8,5.1-0.9,7.3l-43.7,25.2C158.3,125,152.7,125.2,149.4,123.3z"/>
				<g>
					<defs>
						<path id="SVGID_16_" d="M151.1,115.1l-33-19c-2.3-1.4-2.1-3.7,0.7-5.3l31.7-18.3c2.7-1.6,6.8-1.7,9.1-0.4l33,19
							c2.3,1.4,2.1,3.7-0.7,5.3l-31.7,18.3C157.5,116.3,153.4,116.5,151.1,115.1z"/>
					</defs>
					<use xlink:href="#SVGID_16_"  style="overflow:visible;fill:#6DE0F6;"/>
					<clipPath id="SVGID_17_">
						<use xlink:href="#SVGID_16_"  style="overflow:visible;"/>
					</clipPath>
					<path class="st21" d="M118.7,93.4l31.7-18.3c2.7-1.6,6.8-1.7,9.2-0.4l33,19c0.5,0.3,0.9,0.7,1.2,1c0.8-1.3,0.5-2.7-1.2-3.6
						l-33-19c-2.3-1.4-6.4-1.2-9.2,0.4l-31.7,18.3c-2.1,1.2-2.7,2.9-1.8,4.2C117.3,94.5,117.9,93.9,118.7,93.4z"/>
					<path class="st22" d="M118.7,96.5l31.7-18.3c2.7-1.6,6.8-1.7,9.2-0.4l33,19c0.4,0.2,0.7,0.5,1,0.8c1-1.4,0.8-2.9-1-3.9l-33-19
						c-2.3-1.4-6.4-1.2-9.2,0.4l-31.7,18.3c-2.2,1.3-2.8,3.1-1.6,4.5C117.5,97.4,118,96.9,118.7,96.5z"/>
					<path class="st23" d="M117.4,101.3c0.3-0.4,0.8-0.7,1.3-1L150.4,82c2.7-1.6,6.8-1.7,9.2-0.4l33,19c0.3,0.1,0.5,0.3,0.6,0.5
						c1.4-1.5,1.2-3.2-0.6-4.3l-33-19c-2.3-1.4-6.4-1.2-9.2,0.4l-31.7,18.3C116.3,97.9,115.8,99.9,117.4,101.3z"/>
				</g>
			</g>
			<linearGradient id="SVGID_18_" gradientUnits="userSpaceOnUse" x1="47.6511" y1="161.3428" x2="213.2101" y2="221.4574">
				<stop  offset="0" style="stop-color:#630692"/>
				<stop  offset="0.2262" style="stop-color:#5B0E94"/>
				<stop  offset="0.587" style="stop-color:#432399"/>
				<stop  offset="1" style="stop-color:#2142A1"/>
			</linearGradient>
			<path class="st24" d="M143,235l-49.7-28.7c-1.3-0.8-2.4-2.8-2.4-4.6v-61c0-1.8,1.1-2.6,2.4-1.8l49.7,28.7
				c1.3,0.8,2.4,2.8,2.4,4.6v61C145.4,234.9,144.3,235.8,143,235z"/>
			<path class="st2" d="M143.8,234.6l-49.7-28.7c-1.3-0.8-2.4-2.8-2.4-4.6v-61c0-0.8,0.2-1.4,0.6-1.7c-0.9,0-1.5,0.8-1.5,2.1v61
				c0,1.8,1.1,3.9,2.4,4.6L143,235c0.7,0.4,1.4,0.4,1.8-0.1C144.5,234.9,144.2,234.8,143.8,234.6z"/>
			<path class="st2" d="M135.7,220.9l-35.1-20.2c-0.9-0.5-1.7-2-1.7-3.3v-43.1c0-1.3,0.8-1.8,1.7-1.3l35.1,20.2
				c0.9,0.5,1.7,2,1.7,3.3v43.1C137.4,220.8,136.6,221.4,135.7,220.9z"/>
			<path class="st25" d="M103,199c-0.9-0.5-1.7-2-1.7-3.3v-42.3l-0.7-0.4c-0.9-0.5-1.7,0-1.7,1.3v43.1c0,1.3,0.8,2.7,1.7,3.3
				l35.1,20.2c0.9,0.5,1.7,0,1.7-1.3v-0.7L103,199z"/>
			<path class="st26" d="M165.9,234c-0.3,0-0.5-0.1-0.7-0.2c-0.6-0.3-0.9-1.1-0.9-2.1v-55.2c0-1.8,1.1-3.9,2.4-4.6l48.5-28
				c0.6-0.4,1.3-0.4,1.8-0.1c0.6,0.3,0.9,1.1,0.9,2.1v55.2c0,1.8-1.1,3.9-2.4,4.6l-48.5,28C166.6,233.9,166.2,234,165.9,234z
				 M216.2,144.1c-0.2,0-0.5,0.1-0.8,0.2l-48.5,28c-1.2,0.7-2.2,2.6-2.2,4.2v55.2c0,0.8,0.2,1.4,0.7,1.6c0.3,0.2,0.8,0.2,1.2-0.1
				l48.5-28l0.1,0.2l-0.1-0.2c1.2-0.7,2.2-2.6,2.2-4.2v-55.2c0-0.8-0.2-1.4-0.7-1.6C216.6,144.2,216.4,144.1,216.2,144.1z"/>
		</g>
	</g>
</g>
</svg>
