<?xml version="1.0" encoding="utf-8"?>
<!-- Generator: Adobe Illustrator 21.1.0, SVG Export Plug-In . SVG Version: 6.00 Build 0)  -->
<svg version="1.1" id="Layer_1" xmlns="http://www.w3.org/2000/svg" xmlns:xlink="http://www.w3.org/1999/xlink" x="0px" y="0px"
	 viewBox="0 0 512 512" style="enable-background:new 0 0 512 512;" xml:space="preserve">
<style type="text/css">
	.st0{fill:#FF9518;}
	.st1{fill:#F2F2F2;}
	.st2{fill:#3057B7;}
</style>
<circle class="st0" cx="256" cy="256" r="245.8"/>
<g>
	<rect x="168.3" y="120.4" class="st1" width="62.2" height="271.3"/>
	<rect x="281.5" y="120.4" class="st1" width="62.2" height="271.3"/>
</g>
<g>
	<path class="st2" d="M256,512c-68.4,0-132.7-26.6-181-75C26.6,388.7,0,324.4,0,256S26.6,123.3,75,75C123.3,26.6,187.6,0,256,0
		s132.7,26.6,181,75c48.4,48.4,75,112.6,75,181s-26.6,132.7-75,181C388.7,485.4,324.4,512,256,512z M256,20.4
		C126.1,20.4,20.4,126.1,20.4,256S126.1,491.6,256,491.6S491.6,385.9,491.6,256S385.9,20.4,256,20.4z"/>
	<path class="st2" d="M230.5,401.8h-62.2c-5.6,0-10.2-4.6-10.2-10.2V120.4c0-5.6,4.6-10.2,10.2-10.2h62.2c5.6,0,10.2,4.6,10.2,10.2
		v271.3C240.7,397.3,236.1,401.8,230.5,401.8z M178.5,381.4h41.8V130.6h-41.8V381.4z"/>
	<path class="st2" d="M343.7,401.8h-62.2c-5.6,0-10.2-4.6-10.2-10.2V120.4c0-5.6,4.6-10.2,10.2-10.2h62.2c5.6,0,10.2,4.6,10.2,10.2
		v271.3C353.9,397.3,349.3,401.8,343.7,401.8z M291.7,381.4h41.8V130.6h-41.8L291.7,381.4L291.7,381.4z"/>
	<path class="st2" d="M256,473.2c-5.6,0-10.2-4.6-10.2-10.2c0-5.6,4.6-10.2,10.2-10.2c52.8,0,102.4-20.6,139.6-58.1
		c4-4,10.4-4,14.4,0c4,4,4,10.4,0,14.4C369,450.5,314.3,473.2,256,473.2z"/>
	<path class="st2" d="M430.4,377.8c-1.9,0-3.8-0.5-5.5-1.6c-4.7-3-6.1-9.4-3.1-14.1c1.5-2.4,3-4.8,4.4-7.2c2.8-4.9,9.1-6.5,13.9-3.7
		c4.9,2.8,6.5,9.1,3.7,13.9c-1.6,2.7-3.2,5.3-4.9,8C437,376.2,433.8,377.8,430.4,377.8z"/>
</g>
</svg>
