<?xml version="1.0" encoding="utf-8"?>
<!-- Generator: Adobe Illustrator 21.1.0, SVG Export Plug-In . SVG Version: 6.00 Build 0)  -->
<svg version="1.1" id="Livello_1" xmlns="http://www.w3.org/2000/svg" xmlns:xlink="http://www.w3.org/1999/xlink" x="0px" y="0px"
	 viewBox="0 0 511 511" style="enable-background:new 0 0 511 511;" xml:space="preserve">
<style type="text/css">
	.st0f{fill:#D0D7DF;}
	.st1f{fill:#F24976;}
	.st2f{fill:#3057B7;}
</style>
<g>
	<path class="st0f" d="M255.5,462c113.5,0,206.1-92.6,206.1-206.1S369,49.8,255.5,49.8S49.4,142.4,49.4,255.9S142,462,255.5,462z"/>
	<path class="st1f" d="M374.5,255.9L190.6,149.7V362l91.9-53.1L374.5,255.9z"/>
	<path class="st2f" d="M255.5,35.8c-121.4,0-220.1,98.7-220.1,220.1c0,121.4,98.7,220.1,220.1,220.1s220.1-98.7,220.1-220.1
		S376.9,35.8,255.5,35.8z M255.5,447.9c-105.9,0-192.1-86.2-192.1-192.1c0-105.9,86.2-192.1,192.1-192.1
		c105.9,0,192.1,86.2,192.1,192.1C447.6,361.8,361.4,447.9,255.5,447.9z"/>
	<path class="st2f" d="M381.5,243.7L197.6,137.6c-4.3-2.5-9.7-2.5-14,0c-4.3,2.5-7,7.1-7,12.2V362c0,5,2.7,9.6,7,12.2
		c2.2,1.3,4.6,1.9,7,1.9s4.8-0.6,7-1.9L381.5,268c4.3-2.5,7-7.1,7-12.2C388.5,250.9,385.8,246.2,381.5,243.7z M204.6,337.7V174
		l141.7,81.8L204.6,337.7z"/>
</g>
</svg>
