<svg height="512pt" viewBox="-50 0 512 512" width="512pt" xmlns="http://www.w3.org/2000/svg"><path d="m282.433594 290.390625h18.910156c3.433594 0 5.429688 3.886719 3.425781 6.675781l-33.941406 47.25c-5.347656 7.445313-16.421875 7.445313-21.765625 0l-33.941406-47.25c-2.003906-2.789062-.011719-6.675781 3.421875-6.675781h18.910156c1.707031 0 3.09375-1.382813 3.09375-3.089844v-44.199219h-69.804687v57.199219c0 3.914063-3.175782 7.089844-7.089844 7.089844h-24.617188c-3.914062 0-7.089844-3.175781-7.089844-7.089844v-57.199219h-58.1875c-13.046874 0-23.625 10.578126-23.625 23.625v130.179688h311.019532v-130.179688c0-13.046874-10.574219-23.625-23.625-23.625h-58.183594v44.199219c0 1.707031 1.382812 3.089844 3.089844 3.089844zm0 0" fill="#c5e8ff"/><path d="m50.132812 433.511719c0 9.070312 7.351563 16.421875 16.421876 16.421875h278.175781c9.070312 0 16.421875-7.351563 16.421875-16.421875v-36.605469h-311.019532zm0 0" fill="#00b8ff"/><path d="m314.625 74.285156c-21.234375-38.332031-62.089844-64.285156-109.015625-64.285156-56.589844 0-104.355469 37.746094-119.515625 89.433594-2.191406-.207032-4.40625-.324219-6.648438-.324219-38.351562 0-69.445312 31.09375-69.445312 69.449219v.355468c.089844 17.9375 14.957031 32.304688 32.894531 32.304688h89.050781v-23.265625c0-1.710937-1.386718-3.09375-3.09375-3.09375h-18.910156c-3.433594 0-5.425781-3.886719-3.421875-6.675781l33.941407-47.25c5.34375-7.445313 16.417968-7.445313 21.765624 0l33.941407 47.25c2.003906 2.789062.007812 6.675781-3.425781 6.675781h-18.910157c-1.707031 0-3.089843 1.382813-3.089843 3.09375v23.265625h69.804687v-36.269531c0-3.914063 3.171875-7.089844 7.089844-7.089844h24.613281c3.917969 0 7.089844 3.175781 7.089844 7.089844v36.269531h88.703125c16.675781 0 30.792969-12.46875 32.679687-29.039062.371094-3.285157.5625-6.625.5625-10.007813.003906-48.132813-38.6875-87.210937-86.660156-87.886719zm0 0" fill="#00b8ff"/><path d="m139.035156 307.390625h24.617188c3.914062 0 7.089844-3.175781 7.089844-7.089844v-122.351562c0-1.707031 1.382812-3.089844 3.089843-3.089844h18.910157c3.433593 0 5.429687-3.886719 3.425781-6.675781l-33.941407-47.25c-5.347656-7.445313-16.421874-7.445313-21.765624 0l-33.941407 47.25c-2.003906 2.789062-.011719 6.675781 3.421875 6.675781h18.910156c1.707032 0 3.09375 1.382813 3.09375 3.089844v122.351562c0 3.914063 3.175782 7.089844 7.089844 7.089844zm0 0" fill="#3df399"/><path d="m272.253906 157.859375h-24.617187c-3.914063 0-7.089844 3.175781-7.089844 7.089844v122.347656c0 1.710937-1.386719 3.09375-3.09375 3.09375h-18.910156c-3.433594 0-5.425781 3.886719-3.421875 6.675781l33.941406 47.25c5.34375 7.441406 16.417969 7.441406 21.765625 0l33.941406-47.25c2.003907-2.789062.007813-6.675781-3.425781-6.675781h-18.910156c-1.707032 0-3.089844-1.382813-3.089844-3.09375v-122.347656c0-3.914063-3.175781-7.089844-7.089844-7.089844zm0 0" fill="#ff2d83"/><path d="m176.257812 502h58.773438l-7.691406-52.066406h-43.390625zm0 0" fill="#3479be"/><path d="m383.0625 93.40625c-16.824219-17.042969-38.855469-27.167969-62.542969-28.871094-24.378906-39.949218-67.894531-64.535156-114.910156-64.535156-29.664063 0-57.792969 9.464844-81.347656 27.375-20.679688 15.722656-36.5625 37.429688-45.316407 61.738281-43.578124.269531-78.945312 35.804688-78.945312 79.445313v.402344c.117188 23.300781 19.359375 42.257812 42.894531 42.257812h79.050781v21.882812h-48.183593c-18.542969 0-33.625 15.082032-33.625 33.625v166.785157c0 14.570312 11.851562 26.421875 26.421875 26.421875h105.804687l-4.734375 32.066406h-10.8125c-5.519531 0-10 4.476562-10 10s4.480469 10 10 10h97.652344c5.523438 0 10-4.476562 10-10s-4.476562-10-10-10h-10.808594l-4.738281-32.066406h105.808594c14.570312 0 26.421875-11.851563 26.421875-26.417969v-166.789063c0-18.542968-15.082032-33.625-33.625-33.625h-48.1875v-21.882812h78.703125c21.835937 0 40.15625-16.296875 42.613281-37.90625.417969-3.675781.628906-7.421875.628906-11.140625.003906-25.910156-10.019531-50.332031-28.222656-68.765625zm-113.71875 193.890625c0 7.222656 5.871094 13.09375 13.089844 13.09375h7.636718l-27.367187 38.09375c-.882813 1.230469-2.105469 1.414063-2.757813 1.414063-.652343 0-1.875-.183594-2.761718-1.414063l-27.363282-38.09375h7.632813c7.222656 0 13.09375-5.871094 13.09375-13.09375v-119.4375h18.796875zm-38.796875-54.195313h-49.804687v-21.882812h49.804687zm-69.804687-55.152343v119.441406h-18.796876v-119.441406c0-7.21875-5.871093-13.089844-13.089843-13.089844h-7.636719l27.363281-38.09375c1.359375-1.890625 4.160157-1.894531 5.523438 0l27.363281 38.09375h-7.632812c-7.222657 0-13.09375 5.871094-13.09375 13.089844zm62.703124 314.050781h-35.601562l4.738281-32.066406h26.125zm114.082032-238.898438c7.515625 0 13.625 6.113282 13.625 13.625v120.179688h-18.480469c-5.523437 0-10 4.476562-10 10s4.476563 10 10 10h18.480469v26.609375c0 3.539063-2.878906 6.417969-6.421875 6.417969h-278.175781c-3.539063 0-6.421876-2.878906-6.421876-6.417969v-26.609375h192.539063c5.519531 0 10-4.476562 10-10s-4.480469-10-10-10h-192.539063v-120.179688c0-7.511718 6.113282-13.625 13.625-13.625h48.1875v47.199219c0 9.421875 7.667969 17.089844 17.089844 17.089844h24.617188c9.421875 0 17.089844-7.667969 17.089844-17.089844v-47.199219h49.804687v27.289063h-12.003906c-5.355469 0-10.203125 2.960937-12.648438 7.730469-2.445312 4.765625-2.019531 10.429687 1.105469 14.78125l33.941406 47.25c4.382813 6.105468 11.488282 9.746094 19.003906 9.746094 7.515626 0 14.621094-3.644532 19.003907-9.746094l33.941406-47.253906c3.125-4.347657 3.546875-10.011719 1.101563-14.78125-2.441407-4.765626-7.289063-7.726563-12.644532-7.726563h-12.003906v-27.289063zm53.257812-82.050781c-1.308594 11.496094-11.085937 20.167969-22.742187 20.167969h-78.699219v-26.269531c0-9.421875-7.667969-17.089844-17.089844-17.089844h-24.617187c-9.421875 0-17.089844 7.667969-17.089844 17.089844v26.269531h-49.804687v-6.359375h12.003906c5.355468 0 10.203125-2.960937 12.648437-7.726563 2.445313-4.769531 2.019531-10.433593-1.105469-14.785156l-33.941406-47.25c-9.324218-12.980468-28.683594-12.980468-38.007812 0l-33.945313 47.253906c-3.121093 4.351563-3.542969 10.015626-1.097656 14.78125 2.441406 4.765626 7.289063 7.726563 12.644531 7.726563h12.003906v6.359375h-79.050781c-12.5625 0-22.832031-10.027344-22.894531-22.390625v-.269531c0-30.910156 23.71875-56.378906 53.910156-59.179688-1.121094 8.753906-1.324218 20.546875 2.917969 30.984375 2.085937 5.140625 7.933594 7.570313 13.027344 5.5 5.117187-2.078125 7.578125-7.914062 5.5-13.027343-4.125-10.160157-1.167969-25.5.320312-30.554688.003907-.003906.003907-.011719.003907-.015625.003906-.003906.003906-.011719.007812-.015625 6.820312-23.261719 21.269531-44.199219 40.679688-58.953125 20.042968-15.242187 43.988281-23.296875 69.242187-23.296875 36.660156 0 70.816406 17.566406 92.253906 46.65625-15.519531 3.589844-37.722656 12.582031-47.144531 35.089844-2.773438 6.632812 2.144531 13.867187 9.222656 13.867187 3.910156-.003906 7.621094-2.308593 9.226563-6.144531 9.464843-22.605469 42.425781-25 45.539062-25.175781 20.492188.347656 39.707031 8.5625 54.125 23.164062 14.480469 14.667969 22.457031 34.101563 22.457031 54.714844 0 2.964844-.167968 5.949219-.503906 8.878906zm0 0"/><path d="m212.375 413.421875h-13.460938c-5.523437 0-10 4.476563-10 10 0 5.519531 4.476563 10 10 10h13.460938c5.523438 0 10-4.480469 10-10 0-5.523437-4.476562-10-10-10zm0 0"/><path d="m292.695312 386.90625h-.023437c-5.523437 0-9.988281 4.476562-9.988281 10 0 5.519531 4.492187 10 10.015625 10 5.523437 0 10-4.480469 10-10 0-5.523438-4.480469-10-10.003907-10zm0 0"/></svg>