<?xml version="1.0" encoding="iso-8859-1"?>
<!-- Generator: Adobe Illustrator 19.0.0, SVG Export Plug-In . SVG Version: 6.00 Build 0)  -->
<svg version="1.1" id="Capa_1" xmlns="http://www.w3.org/2000/svg" xmlns:xlink="http://www.w3.org/1999/xlink" x="0px" y="0px"
	 viewBox="0 0 400 400" style="enable-background:new 0 0 400 400;" xml:space="preserve">
<g id="XMLID_484_">
	<polygon id="XMLID_486_" style="fill:#565659;" points="185,300 185,370 200,370 215,370 215,300 200,300 	"/>
	<polygon id="XMLID_487_" style="fill:#565659;" points="215,30 215,0 185,0 185,30 200,30 	"/>
	<path id="XMLID_488_" style="fill:#FFDA44;" d="M200,60H50v210h150h150V60H200z M125,240H95v-30h30V240z M125,209.999H95v-60h30
		V209.999z M185,240h-30v-30h30V240z M185,209.999h-30v-80h30V209.999z M245,240h-30v-30h30V240z M245,209.999h-30v-100h30V209.999z
		 M305,240h-30v-30h30V240z M305,209.999h-30v-120h30V209.999z"/>
	<rect id="XMLID_500_" x="95" y="210" style="fill:#FF9811;" width="30" height="30"/>
	<rect id="XMLID_501_" x="95" y="149.999" style="fill:#FFFFFF;" width="30" height="60"/>
	<rect id="XMLID_502_" x="155" y="210" style="fill:#FF5023;" width="30" height="30"/>
	<rect id="XMLID_503_" x="155" y="129.999" style="fill:#FFFFFF;" width="30" height="80"/>
	<rect id="XMLID_504_" x="215" y="210" style="fill:#D80027;" width="30" height="30"/>
	<rect id="XMLID_505_" x="215" y="109.999" style="fill:#FFFFFF;" width="30" height="100"/>
	<rect id="XMLID_506_" x="275" y="210" style="fill:#A2001D;" width="30" height="30"/>
	<rect id="XMLID_507_" x="275" y="89.999" style="fill:#FFFFFF;" width="30" height="120"/>
	<polygon id="XMLID_508_" style="fill:#ACABB1;" points="200,30 185,30 20,30 20,60 50,60 200,60 	"/>
	<polygon id="XMLID_509_" style="fill:#ACABB1;" points="200,270 50,270 20,270 20,300 185,300 200,300 	"/>
	<polygon id="XMLID_510_" style="fill:#818085;" points="200,60 350,60 380,60 380,30 215,30 200,30 	"/>
	<polygon id="XMLID_511_" style="fill:#818085;" points="200,300 215,300 380,300 380,270 350,270 200,270 	"/>
	<polygon id="XMLID_512_" style="fill:#818085;" points="200,400 280,400 280,370 215,370 200,370 	"/>
	<polygon id="XMLID_515_" style="fill:#ACABB1;" points="185,370 120,370 120,400 200,400 200,370 	"/>
</g>
<g>
</g>
<g>
</g>
<g>
</g>
<g>
</g>
<g>
</g>
<g>
</g>
<g>
</g>
<g>
</g>
<g>
</g>
<g>
</g>
<g>
</g>
<g>
</g>
<g>
</g>
<g>
</g>
<g>
</g>
</svg>
